<?xml version="1.0" standalone="no"?>
<!DOCTYPE svg PUBLIC "-//W3C//DTD SVG 20010904//EN"
 "http://www.w3.org/TR/2001/REC-SVG-20010904/DTD/svg10.dtd">
<svg version="1.0" xmlns="http://www.w3.org/2000/svg"
 width="908.000000pt" height="938.000000pt" viewBox="0 0 908.000000 938.000000"
 preserveAspectRatio="xMidYMid meet">

<g transform="translate(0.000000,938.000000) scale(0.100000,-0.100000)"
fill="#000000" stroke="none">
<path d="M1865 8933 c-11 -2 -56 -15 -100 -28 -177 -53 -352 -198 -437 -361
-79 -151 -93 -213 -92 -394 2 -323 83 -824 181 -1110 123 -365 228 -569 415
-810 109 -141 277 -290 456 -404 232 -148 577 -271 977 -350 479 -93 721 -152
878 -211 102 -38 282 -130 367 -187 111 -76 146 -104 238 -193 237 -227 401
-547 505 -985 52 -216 135 -685 124 -697 -2 -1 -105 -8 -229 -13 -519 -24
-989 56 -1410 241 -88 38 -276 144 -373 209 -149 100 -238 130 -386 130 -101
0 -169 -14 -236 -48 -23 -12 -49 -22 -57 -22 -8 0 -53 -36 -100 -81 -195 -184
-271 -376 -462 -1164 -34 -143 -78 -321 -97 -395 -19 -74 -72 -288 -117 -475
-134 -560 -161 -667 -181 -727 -10 -32 -19 -73 -19 -93 0 -78 64 -145 159
-166 72 -16 159 53 242 191 148 245 302 454 511 693 237 270 534 513 746 608
137 62 349 129 453 144 85 12 128 53 143 137 13 71 -54 171 -121 184 -38 7
-203 -18 -306 -46 -157 -44 -367 -137 -462 -205 -16 -12 -38 -25 -48 -28 -25
-9 -135 -88 -247 -177 -128 -101 -326 -295 -429 -419 -47 -55 -87 -99 -89 -96
-6 5 85 390 118 500 11 37 49 196 90 375 53 234 150 591 186 685 67 176 157
272 275 297 76 15 113 2 264 -94 413 -260 795 -398 1290 -464 150 -20 631 -29
810 -16 72 6 132 8 134 6 2 -2 10 -43 17 -91 7 -48 23 -149 34 -223 12 -74 28
-178 36 -230 26 -170 66 -424 74 -475 5 -27 31 -207 59 -400 67 -462 117 -759
135 -793 47 -91 155 -120 234 -62 91 66 98 116 50 355 -15 76 -20 112 -143
920 -14 94 -32 202 -40 240 -8 39 -35 211 -60 384 -25 172 -50 334 -56 359 -5
24 -8 46 -6 49 2 2 75 15 162 28 231 36 613 130 813 200 506 176 916 406 1216
682 329 303 529 616 658 1033 31 98 33 114 32 245 0 130 -2 146 -31 225 -41
116 -74 179 -130 247 -106 130 -220 207 -383 256 -62 19 -107 21 -990 27 -596
5 -952 12 -1000 19 -194 29 -341 94 -453 200 -123 117 -249 322 -302 489 -26
82 -129 500 -189 767 -36 160 -132 480 -188 629 -33 90 -101 230 -143 296 -83
132 -260 325 -367 400 -147 104 -342 193 -525 239 -196 50 -230 51 -1174 50
-486 -1 -893 -3 -904 -6z m1870 -343 c372 -65 626 -225 810 -508 122 -189 229
-518 355 -1092 91 -410 153 -613 239 -775 235 -448 535 -645 1040 -684 80 -7
465 -11 938 -11 551 0 819 -3 855 -11 134 -28 230 -105 294 -235 73 -146 58
-285 -63 -582 -32 -78 -146 -263 -221 -357 -172 -216 -404 -413 -692 -587 -93
-56 -327 -171 -400 -197 -30 -11 -92 -35 -138 -55 -159 -67 -432 -144 -714
-201 -111 -23 -297 -55 -317 -55 -5 0 -12 21 -16 48 -82 571 -175 949 -305
1231 -156 341 -381 616 -665 813 -88 61 -230 142 -285 163 -19 7 -89 35 -155
63 -172 71 -466 148 -875 226 -538 104 -828 220 -1105 440 -202 161 -388 417
-498 686 -99 242 -151 437 -214 797 -29 168 -36 235 -37 348 -1 197 14 268 79
364 44 66 61 82 125 119 131 74 72 70 1006 71 804 1 847 0 959 -19z"/>
</g>
</svg>
