<?xml version="1.0" encoding="UTF-8"?>
<svg width="512" height="512" viewBox="0 0 512 512" xmlns="http://www.w3.org/2000/svg">
  <!-- Círculo blanco de fondo -->
  <circle cx="256" cy="256" r="256" fill="white"/>

  <!-- Logo de la silla centrado -->
  <g transform="translate(56, 156) scale(0.14)">
    <g transform="translate(0.000000,1536.000000) scale(0.100000,-0.100000)" fill="#000000" stroke="none">
      <path d="M10950 11839 c-118 -31 -231 -92 -324 -177 -115 -106 -179 -206 -228
-362 -20 -66 -23 -94 -22 -230 1 -319 81 -810 179 -1105 118 -356 228 -570
417 -815 209 -270 545 -496 921 -619 205 -67 306 -92 617 -156 146 -29 301
-61 345 -70 441 -90 776 -251 1029 -494 155 -149 294 -366 396 -615 52 -128
106 -324 154 -559 29 -143 88 -508 83 -514 -2 -2 -103 -8 -224 -13 -630 -28
-1165 88 -1632 354 -47 26 -117 69 -155 96 -149 100 -239 130 -387 130 -101 0
-169 -14 -236 -48 -23 -12 -49 -22 -58 -22 -29 0 -199 -180 -245 -260 -100
-172 -180 -420 -316 -985 -35 -143 -111 -453 -169 -690 -58 -236 -120 -491
-136 -565 -17 -74 -49 -196 -70 -270 -21 -74 -39 -150 -39 -168 0 -74 66 -142
159 -163 69 -15 161 54 233 176 240 405 595 830 897 1074 184 148 320 230 492
294 81 31 270 83 329 91 112 17 175 121 132 219 -25 56 -66 95 -109 103 -38 7
-202 -18 -306 -46 -157 -44 -367 -137 -462 -205 -16 -12 -38 -25 -48 -28 -25
-9 -132 -86 -243 -173 -124 -98 -319 -288 -429 -418 -49 -59 -91 -103 -93 -98
-2 8 47 220 131 557 30 121 83 335 117 475 106 436 154 580 230 690 50 70 102
108 172 127 94 24 120 16 285 -89 413 -262 786 -396 1293 -464 106 -15 202
-19 450 -19 173 0 356 2 405 5 l90 5 3 -30 c2 -29 25 -176 58 -385 60 -379 92
-586 144 -940 88 -607 120 -796 141 -851 6 -15 25 -41 43 -58 26 -26 44 -33
88 -38 64 -6 100 8 146 61 50 58 52 115 7 341 -15 75 -57 337 -75 470 -23 165
-81 535 -105 665 -13 74 -41 250 -60 390 -20 140 -43 288 -51 329 -7 41 -12
76 -10 78 2 2 74 15 161 28 215 34 542 111 745 177 511 165 972 418 1284 705
329 303 538 631 662 1043 26 85 29 109 28 235 0 131 -2 146 -31 225 -48 136
-96 216 -182 308 -49 52 -174 137 -244 165 -140 56 -146 56 -1112 61 -623 2
-915 7 -975 16 -179 25 -333 95 -445 201 -123 117 -247 319 -299 487 -32 102
-117 443 -167 667 -92 418 -218 790 -338 998 -48 84 -194 262 -278 340 -156
145 -388 265 -631 326 -194 49 -231 51 -1173 50 -844 0 -887 -1 -959 -20z
m1921 -329 c376 -65 630 -224 814 -508 122 -189 229 -518 355 -1092 91 -410
153 -613 239 -775 236 -448 534 -645 1040 -684 80 -7 465 -11 938 -11 558 0
818 -3 855 -11 136 -29 229 -103 293 -233 74 -148 59 -288 -62 -584 -32 -78
-146 -263 -221 -357 -170 -214 -420 -426 -693 -587 -94 -56 -350 -182 -409
-202 -25 -8 -82 -31 -128 -50 -175 -73 -472 -155 -782 -214 -216 -42 -260 -47
-260 -30 0 7 -16 110 -35 228 -77 484 -158 788 -276 1044 -91 196 -174 326
-315 492 -157 186 -328 320 -574 450 -26 13 -101 46 -250 107 -142 58 -462
138 -865 216 -515 100 -807 218 -1080 435 -202 161 -389 418 -498 686 -79 195
-130 365 -172 570 -78 384 -98 622 -66 789 21 105 92 211 178 263 134 81 74
76 1019 77 796 1 848 0 955 -19z"/>
    </g>
  </g>
</svg>
